<svg width="367" height="197" viewBox="0 0 367 197" fill="none" xmlns="http://www.w3.org/2000/svg">
<g clip-path="url(#clip0_762_5250)">
<rect width="367" height="197" fill="white"/>
<g clip-path="url(#clip1_762_5250)">
<path d="M0 197.799L367 197.775V-4.68359H0V197.799Z" fill="#82CFFF"/>
<path d="M75.9176 109.197C75.9176 123.177 64.5872 134.507 50.6072 134.507C36.6272 134.507 25.2969 123.177 25.2969 109.197C25.2969 95.2171 36.6272 83.8867 50.6072 83.8867C64.5872 83.8867 75.9176 95.2171 75.9176 109.197Z" fill="#002D9C"/>
<path d="M341.671 109.197C341.671 123.177 330.341 134.507 316.361 134.507C302.381 134.507 291.051 123.177 291.051 109.197C291.051 95.2171 302.381 83.8867 316.361 83.8867C330.341 83.8867 341.671 95.2171 341.671 109.197Z" fill="#002D9C"/>
<path d="M75.9176 134.506C75.9176 148.486 64.5872 159.816 50.6072 159.816C36.6272 159.816 25.2969 148.486 25.2969 134.506C25.2969 120.526 36.6272 109.195 50.6072 109.195C64.5872 109.195 75.9176 120.526 75.9176 134.506Z" fill="#002D9C"/>
<path d="M341.671 134.506C341.671 148.486 330.341 159.816 316.361 159.816C302.381 159.816 291.051 148.486 291.051 134.506C291.051 120.526 302.381 109.195 316.361 109.195C330.341 109.195 341.671 120.526 341.671 134.506Z" fill="#002D9C"/>
<path d="M316.36 -4.66406H50.6055V197.819H316.36V-4.66406Z" fill="#0043CE"/>
<path d="M44.2773 77.5586L101.241 77.5744" stroke="#33B1FF" stroke-width="12.6552" stroke-linecap="round" stroke-linejoin="round"/>
<path d="M268.918 77.5742H322.702" stroke="#33B1FF" stroke-width="12.6552" stroke-linecap="round" stroke-linejoin="round"/>
<path d="M170.83 96.542C170.83 127.994 145.334 153.49 113.882 153.49C82.4298 153.49 56.9336 127.994 56.9336 96.542C56.9336 65.09 82.4298 39.5938 113.882 39.5938C145.334 39.5938 170.83 65.09 170.83 96.542Z" fill="#33B1FF"/>
<path d="M164.5 90.2132C164.5 79.7292 172.999 71.2305 183.483 71.2305C193.967 71.2305 202.466 79.7292 202.466 90.2132" stroke="#33B1FF" stroke-width="12.6552" stroke-linecap="round" stroke-linejoin="round"/>
<path d="M163.098 47.327C149.952 34.1815 132.472 26.9403 113.881 26.9403C95.2899 26.9403 77.81 34.1815 64.6644 47.327L55.7148 38.3774C71.253 22.8393 91.9086 14.2852 113.881 14.2852C135.854 14.2852 156.509 22.8432 172.048 38.3774L163.098 47.327Z" fill="#002D9C"/>
<path d="M302.301 47.327C289.156 34.1815 271.676 26.9403 253.084 26.9403C234.493 26.9403 217.013 34.1815 203.868 47.327L194.918 38.3774C210.456 22.8393 231.112 14.2852 253.084 14.2852C275.057 14.2852 295.712 22.8432 311.251 38.3774L302.301 47.327Z" fill="#002D9C"/>
<path d="M310.033 96.542C310.033 127.994 284.537 153.49 253.085 153.49C221.633 153.49 196.137 127.994 196.137 96.542C196.137 65.09 221.633 39.5938 253.085 39.5938C284.537 39.5938 310.033 65.09 310.033 96.542Z" fill="#33B1FF"/>
<path d="M299.75 96.5449C299.75 122.318 278.857 143.211 253.084 143.211C227.311 143.211 206.418 122.318 206.418 96.5449C206.418 70.7718 227.311 49.8789 253.084 49.8789C278.857 49.8789 299.75 70.7718 299.75 96.5449Z" fill="#82CFFF"/>
<path d="M160.547 96.5449C160.547 122.318 139.654 143.211 113.881 143.211C88.1077 143.211 67.2148 122.318 67.2148 96.5449C67.2148 70.7718 88.1077 49.8789 113.881 49.8789C139.654 49.8789 160.547 70.7718 160.547 96.5449Z" fill="#82CFFF"/>
<path d="M132.862 78.6465C122.378 68.7637 105.381 68.7637 94.8968 78.6465L75.9141 96.5457L94.8968 114.445C105.381 124.328 122.378 124.328 132.862 114.445L151.845 96.5457L132.862 78.6465Z" fill="white"/>
<path d="M272.065 78.6465C261.581 68.7637 244.584 68.7637 234.1 78.6465L215.117 96.5457L234.1 114.445C244.584 124.328 261.581 124.328 272.065 114.445L291.048 96.5457L272.065 78.6465Z" fill="white"/>
<path d="M272.067 96.5414C272.067 107.025 263.568 115.524 253.084 115.524C242.6 115.524 234.102 107.025 234.102 96.5414C234.102 86.0573 242.6 77.5586 253.084 77.5586C263.568 77.5586 272.067 86.0573 272.067 96.5414Z" fill="#A56EFF"/>
<path d="M253.083 96.5397L226.238 69.6949C233.649 62.2838 242.599 58.5742 253.083 58.5742V96.5397Z" fill="#8A3FFC"/>
<path d="M253.084 96.5435H234.102C234.102 91.3035 235.956 86.8267 239.662 83.1211L253.084 96.5435Z" fill="#A56EFF"/>
<path d="M253.084 96.543L239.662 109.965C235.956 106.26 234.102 101.783 234.102 96.543H253.084Z" fill="#BE95FF"/>
<path d="M253.084 96.543V132.337C243.201 132.337 234.761 128.841 227.773 121.853L253.084 96.543Z" fill="#6929C4"/>
<path d="M227.773 121.853C234.761 128.841 243.201 132.337 253.084 132.337V115.525C247.844 115.525 243.098 113.402 239.661 109.965L227.773 121.853Z" fill="#8A3FFC"/>
<path d="M253.082 96.543L266.504 109.965C262.799 113.671 258.326 115.526 253.082 115.526V96.543Z" fill="#A56EFF"/>
<path d="M253.082 96.5435L266.504 83.1211C270.21 86.8267 272.065 91.3035 272.065 96.5435H253.082Z" fill="#6929C4"/>
<path d="M253.082 96.543H272.065C272.065 101.787 270.21 106.26 266.504 109.965L253.082 96.543Z" fill="#BE95FF"/>
<path d="M227.773 121.854C234.761 128.842 243.201 132.338 253.084 132.338V121.854C246.46 121.854 239.839 119.549 234.674 114.953L227.773 121.854Z" fill="#6929C4"/>
<path d="M265.74 96.5419C265.74 103.53 260.073 109.197 253.085 109.197C246.097 109.197 240.43 103.53 240.43 96.5419C240.43 89.5539 246.097 83.8867 253.085 83.8867C260.073 83.8867 265.74 89.5539 265.74 96.5419Z" fill="black"/>
<path d="M195.731 90.2148H170.832V197.784H195.731V90.2148Z" fill="#002D9C"/>
<path d="M196.135 90.2138C196.135 97.2018 190.467 102.869 183.479 102.869C176.491 102.869 170.824 97.2018 170.824 90.2138C170.824 83.2257 176.491 77.5586 183.479 77.5586C190.467 77.5586 196.135 83.2257 196.135 90.2138Z" fill="#002D9C"/>
<path d="M139.191 197.782H170.829V166.145C170.829 183.617 156.663 197.782 139.191 197.782Z" fill="#0F62FE"/>
<path d="M196.137 166.145V197.782H227.775C210.303 197.782 196.137 183.617 196.137 166.145Z" fill="#0F62FE"/>
<path d="M44.2796 109.195H25.2969V134.506H44.2796V109.195Z" fill="#002D9C"/>
<path d="M341.67 109.195H322.688V134.506H341.67V109.195Z" fill="#002D9C"/>
<path d="M132.864 96.5414C132.864 107.025 124.365 115.524 113.881 115.524C103.397 115.524 94.8984 107.025 94.8984 96.5414C94.8984 86.0573 103.397 77.5586 113.881 77.5586C124.365 77.5586 132.864 86.0573 132.864 96.5414Z" fill="#A56EFF"/>
<path d="M113.879 96.5414L100.457 83.119C104.163 79.4134 108.639 77.5586 113.879 77.5586V96.5414Z" fill="#A56EFF"/>
<path d="M113.881 96.5435H94.8984C94.8984 91.3035 96.7532 86.8267 100.459 83.1211L113.881 96.5435Z" fill="#BE95FF"/>
<path d="M113.881 96.543L100.459 109.965C96.7532 106.26 94.8984 101.783 94.8984 96.543H113.881Z" fill="#6929C4"/>
<path d="M113.883 96.543V242.077C73.6948 242.077 39.3914 227.868 10.9766 199.449L113.883 96.543Z" fill="#A56EFF"/>
<path d="M73.6118 136.809L10.9727 199.452C39.3914 227.87 73.6909 242.08 113.879 242.08V153.494C98.1549 153.494 83.9179 147.119 73.6118 136.813" fill="#6929C4"/>
<path d="M100.458 109.965L73.6133 136.81C83.9193 147.116 98.1564 153.491 113.88 153.491V115.525C108.64 115.525 103.895 113.402 100.458 109.965Z" fill="#8A3FFC"/>
<path d="M113.879 96.543L149.673 132.337C139.79 142.22 127.859 147.164 113.879 147.164V96.543Z" fill="#8A3FFC"/>
<path d="M127.301 109.965C123.865 113.402 119.119 115.525 113.879 115.525V147.163C127.855 147.163 139.786 142.22 149.673 132.337L127.301 109.965Z" fill="#6929C4"/>
<path d="M113.879 96.5435L127.301 83.1211C131.007 86.8267 132.862 91.3035 132.862 96.5435H113.879Z" fill="#6929C4"/>
<path d="M113.879 96.5423V-48.9922C154.067 -48.9922 188.37 -34.7828 216.785 -6.36403L113.879 96.5423Z" fill="#8A3FFC"/>
<path d="M132.288 78.1315C127.123 73.5361 120.503 71.2305 113.879 71.2305V96.5408L132.288 78.1315Z" fill="#6929C4"/>
<path d="M113.879 96.543H132.862C132.862 101.787 131.007 106.26 127.301 109.965L113.879 96.543Z" fill="#8A3FFC"/>
<path d="M126.537 96.5419C126.537 103.53 120.87 109.197 113.882 109.197C106.894 109.197 101.227 103.53 101.227 96.5419C101.227 89.5539 106.894 83.8867 113.882 83.8867C120.87 83.8867 126.537 89.5539 126.537 96.5419Z" fill="black"/>
<path d="M113.882 39.5938C82.4298 39.5938 56.9336 65.09 56.9336 96.542C56.9336 127.994 82.4298 153.49 113.882 153.49C145.334 153.49 170.83 127.994 170.83 96.542C170.83 65.09 145.334 39.5938 113.882 39.5938ZM113.882 143.208C88.1088 143.208 67.2159 122.315 67.2159 96.542C67.2159 70.769 88.1088 49.8761 113.882 49.8761C139.655 49.8761 160.548 70.769 160.548 96.542C160.548 122.315 139.655 143.208 113.882 143.208Z" fill="#33B1FF"/>
<path d="M253.085 39.5938C221.633 39.5938 196.137 65.09 196.137 96.542C196.137 127.994 221.633 153.49 253.085 153.49C284.537 153.49 310.033 127.994 310.033 96.542C310.033 65.09 284.537 39.5938 253.085 39.5938ZM253.085 143.208C227.312 143.208 206.419 122.315 206.419 96.542C206.419 70.769 227.312 49.8761 253.085 49.8761C278.858 49.8761 299.751 70.769 299.751 96.542C299.751 122.315 278.858 143.208 253.085 143.208Z" fill="#33B1FF"/>
<path d="M253.082 96.543H272.065C272.065 101.787 270.21 106.26 266.504 109.965L253.082 96.543Z" fill="#BE95FF"/>
<path d="M113.879 96.543H132.862C132.862 101.787 131.007 106.26 127.301 109.965L113.879 96.543Z" fill="#8A3FFC"/>
<path d="M113.879 26.9403C132.47 26.9403 149.95 34.1815 163.096 47.327L172.045 38.3774C156.507 22.8393 135.851 14.2852 113.879 14.2852V26.9403Z" fill="#6929C4"/>
<path d="M253.083 58.5742C242.599 58.5742 233.649 62.2798 226.238 69.695L234.674 78.1304C239.839 73.535 246.459 71.2294 253.083 71.2294V58.5742Z" fill="#6929C4"/>
<path d="M262.032 105.493C264.321 103.203 265.737 100.039 265.737 96.543H253.082L262.032 105.493Z" fill="#491D8B"/>
<path d="M122.825 105.493C125.114 103.203 126.53 100.039 126.53 96.543H113.875L122.825 105.493Z" fill="#491D8B"/>
<path d="M50.6055 159.817V197.818H113.881V153.49C98.1573 153.49 83.9202 147.115 73.6142 136.809L50.6055 159.817Z" fill="#8A3FFC"/>
<path d="M196.135 197.784C196.135 204.772 190.467 210.439 183.479 210.439C176.491 210.439 170.824 204.772 170.824 197.784C170.824 190.796 176.491 185.129 183.479 185.129C190.467 185.129 196.135 190.796 196.135 197.784Z" fill="#0F62FE"/>
</g>
</g>
<defs>
<clipPath id="clip0_762_5250">
<rect width="367" height="197" fill="white"/>
</clipPath>
<clipPath id="clip1_762_5250">
<rect width="367" height="291.069" fill="white" transform="translate(0 -49)"/>
</clipPath>
</defs>
</svg>
