<svg width="568" height="258" viewBox="0 0 568 258" fill="none" xmlns="http://www.w3.org/2000/svg">
<path d="M116.859 155.285C116.859 158.057 116.095 160.16 114.565 161.594C113.036 163.028 110.789 163.745 107.826 163.745H23.802V157.722H85.4579C88.6124 157.722 90.1897 156.145 90.1897 152.991C90.1897 139.895 87.7043 129.858 82.7336 122.88C77.7629 115.806 71.3105 112.269 63.3765 112.269C56.7808 112.269 50.9975 114.229 46.0268 118.148C41.1517 122.067 37.3759 127.755 34.6994 135.211C32.0228 142.571 30.6846 151.509 30.6846 162.024C30.6846 180.569 34.7949 194.716 43.0157 204.466C51.2365 214.121 61.8949 218.948 74.9908 218.948C84.263 218.948 92.1493 216.463 98.6494 211.492C105.15 206.426 109.356 199.926 111.267 191.992C111.841 191.131 112.367 190.558 112.845 190.271C113.323 189.889 113.801 189.697 114.278 189.697C115.043 189.697 115.617 189.984 115.999 190.558C116.381 191.036 116.573 191.848 116.573 192.995C115.808 200.929 113.131 208.146 108.543 214.647C104.05 221.051 98.0281 226.213 90.4764 230.132C83.0204 233.956 74.465 235.868 64.8104 235.868C53.0527 235.868 42.7768 233.287 33.9824 228.125C25.2837 222.867 18.4968 215.459 13.6216 205.9C8.84212 196.341 6.45236 185.205 6.45236 172.491C6.45236 159.491 8.88992 147.924 13.765 137.792C18.6402 127.564 25.5705 119.534 34.556 113.703C43.6371 107.872 54.3432 104.956 66.6744 104.956C76.807 104.956 85.6013 107.107 93.0574 111.409C100.609 115.71 106.44 121.685 110.55 129.332C114.756 136.884 116.859 145.535 116.859 155.285ZM130.391 116.714L119.637 114.85C118.49 114.468 117.678 113.99 117.2 113.416C116.818 112.747 116.626 111.982 116.626 111.122C116.626 110.166 116.961 109.401 117.63 108.828C118.299 108.159 119.16 107.824 120.211 107.824H131.108C132.255 107.824 133.211 107.585 133.976 107.107C134.741 106.534 135.458 105.53 136.127 104.096L150.465 82.0148C151.326 80.7721 152.186 79.8162 153.046 79.1471C154.002 78.4779 155.006 78.1434 156.057 78.1434C157.109 78.1434 157.969 78.5257 158.638 79.2904C159.308 79.9596 159.642 81.0111 159.642 82.4449V201.742C159.642 208.242 160.933 213.165 163.514 216.511C166.19 219.761 169.918 221.386 174.698 221.386C176.992 221.386 178.999 221.051 180.72 220.382C182.44 219.617 183.97 218.661 185.308 217.514C186.742 216.272 187.985 214.981 189.036 213.643C190.088 212.209 191.091 210.775 192.047 209.341C192.621 209.055 193.147 209.15 193.625 209.628C194.103 210.01 194.294 210.823 194.198 212.066C193.338 216.75 191.617 220.86 189.036 224.397C186.455 227.934 183.11 230.706 178.999 232.713C174.984 234.625 170.253 235.581 164.804 235.581C155.149 235.581 147.598 233.096 142.149 228.125C136.7 223.154 133.976 215.507 133.976 205.183V122.306C133.976 120.681 133.737 119.438 133.259 118.578C132.781 117.622 131.825 117.001 130.391 116.714ZM149.318 115.71L149.749 107.824H190.327C191.665 107.824 192.669 108.111 193.338 108.685C194.007 109.162 194.341 109.879 194.341 110.835C194.341 112.269 193.672 113.464 192.334 114.42C191.091 115.28 189.132 115.71 186.455 115.71H149.318ZM232.937 138.365L229.496 134.494L234.944 129.475C244.408 120.49 252.963 114.181 260.61 110.549C268.353 106.821 275.761 104.956 282.835 104.956C292.968 104.956 301.189 108.159 307.498 114.563C313.902 120.968 317.104 130.384 317.104 142.81V217.658C317.104 219.952 317.535 221.673 318.395 222.82C319.255 223.967 320.593 224.779 322.41 225.257L329.005 226.404C329.961 226.787 330.678 227.265 331.156 227.838C331.634 228.412 331.873 229.081 331.873 229.846C331.873 230.801 331.539 231.566 330.869 232.14C330.2 232.713 329.292 233 328.145 233H279.537C277.052 233 275.809 231.949 275.809 229.846C275.809 228.316 276.717 227.265 278.534 226.691L286.276 225.257C288.188 224.779 289.431 223.967 290.004 222.82C290.674 221.577 291.008 219.856 291.008 217.658V147.112C291.008 137.935 288.857 131.148 284.556 126.751C280.254 122.258 274.614 120.012 267.636 120.012C262.952 120.012 258.125 121.111 253.154 123.31C248.184 125.413 243.07 128.95 237.812 133.92L232.937 138.365ZM235.805 26.2377V218.375C235.805 220.478 236.139 222.055 236.808 223.106C237.477 224.158 238.625 224.875 240.25 225.257L247.706 226.691C249.426 227.265 250.287 228.316 250.287 229.846C250.287 231.949 249.14 233 246.845 233H198.381C197.234 233 196.326 232.713 195.657 232.14C195.083 231.566 194.796 230.801 194.796 229.846C194.796 229.081 195.035 228.412 195.513 227.838C196.087 227.169 196.899 226.643 197.951 226.261L205.263 225.114C206.888 224.636 208.036 223.919 208.705 222.963C209.374 221.912 209.708 220.43 209.708 218.518V43.3006C209.708 41.7712 209.469 40.6719 208.991 40.0027C208.514 39.3336 207.701 38.9035 206.554 38.7123L196.804 38.5689C195.848 38.3777 195.131 38.0431 194.653 37.5652C194.175 36.9916 193.936 36.3225 193.936 35.5578C193.936 34.6975 194.223 33.9805 194.796 33.407C195.37 32.8334 196.278 32.3555 197.521 31.9731L225.337 23.5134C227.058 22.9398 228.396 22.5575 229.352 22.3663C230.308 22.0795 231.168 21.9361 231.933 21.9361C233.176 21.9361 234.132 22.3663 234.801 23.2266C235.47 23.9913 235.805 24.995 235.805 26.2377ZM396.903 104.956C409.139 104.956 419.988 107.776 429.452 113.416C438.915 118.961 446.323 126.703 451.676 136.645C457.125 146.491 459.849 157.866 459.849 170.771C459.849 183.389 457.077 194.62 451.533 204.466C446.084 214.216 438.533 221.911 428.878 227.551C419.223 233.096 408.135 235.868 395.613 235.868C383.377 235.868 372.527 233.096 363.064 227.551C353.696 222.007 346.336 214.36 340.983 204.61C335.63 194.764 332.953 183.436 332.953 170.627C332.953 157.914 335.63 146.634 340.983 136.788C346.431 126.942 353.935 119.199 363.494 113.56C373.149 107.824 384.285 104.956 396.903 104.956ZM405.076 227.981C411.959 227.121 417.694 224.062 422.282 218.805C426.871 213.452 430.025 206.282 431.746 197.297C433.562 188.216 433.658 177.653 432.033 165.609C430.312 153.086 427.349 142.763 423.143 134.637C419.032 126.512 413.966 120.633 407.944 117.001C401.922 113.273 395.23 111.887 387.87 112.843C380.7 113.703 374.822 116.858 370.233 122.306C365.741 127.659 362.634 134.829 360.913 143.814C359.288 152.8 359.288 163.267 360.913 175.216C362.634 187.451 365.597 197.679 369.803 205.9C374.009 214.025 379.123 220 385.145 223.823C391.263 227.551 397.907 228.937 405.076 227.981ZM510.102 111.552C503.219 111.552 497.77 113.368 493.756 117.001C489.741 120.633 487.733 125.317 487.733 131.053C487.733 134.972 488.594 138.461 490.314 141.52C492.131 144.579 495.142 147.351 499.348 149.836C503.649 152.322 509.528 154.759 516.984 157.149C528.073 160.495 536.819 164.175 543.224 168.19C549.628 172.204 554.169 176.841 556.845 182.098C559.617 187.26 561.004 193.187 561.004 199.878C561.004 210.871 557.18 219.665 549.533 226.261C541.885 232.761 531.179 236.011 517.414 236.011C511.774 236.011 507.091 235.438 503.362 234.29C499.73 233.239 496.815 232.187 494.616 231.136C492.513 229.989 490.984 229.415 490.028 229.415C488.976 229.415 487.733 229.989 486.3 231.136C484.961 232.187 483.575 233.239 482.141 234.29C480.708 235.438 479.465 236.011 478.413 236.011C477.649 236.011 476.932 235.724 476.263 235.151C475.593 234.673 474.972 233.621 474.399 231.996L466.369 200.595C465.891 198.683 465.748 197.106 465.939 195.863C466.226 194.62 466.847 193.808 467.803 193.426C468.95 192.852 470.049 192.852 471.101 193.426C472.152 193.903 473.108 194.812 473.968 196.15C477.983 204.275 482.141 210.775 486.443 215.65C490.745 220.525 495.333 224.062 500.208 226.261C505.179 228.364 510.532 229.415 516.267 229.415C524.392 229.415 530.51 227.504 534.621 223.68C538.827 219.856 540.93 214.933 540.93 208.911C540.93 204.992 539.974 201.455 538.062 198.301C536.246 195.051 532.996 192.135 528.312 189.554C523.723 186.878 517.271 184.344 508.955 181.955C499.109 179.278 491.127 176.028 485.009 172.204C478.987 168.285 474.542 163.745 471.674 158.583C468.902 153.421 467.516 147.494 467.516 140.803C467.516 133.634 469.237 127.372 472.678 122.019C476.119 116.571 480.946 112.365 487.16 109.401C493.469 106.343 500.686 104.813 508.811 104.813C514.355 104.813 518.992 105.53 522.72 106.964C526.448 108.398 529.363 109.832 531.466 111.265C533.665 112.699 535.194 113.416 536.054 113.416C536.819 113.416 537.775 112.747 538.922 111.409C540.069 109.975 541.264 108.589 542.507 107.251C543.749 105.912 544.944 105.243 546.091 105.243C546.952 105.243 547.716 105.53 548.386 106.104C549.055 106.677 549.533 107.681 549.819 109.115L556.128 138.365C556.606 140.66 556.75 142.38 556.559 143.527C556.463 144.674 555.889 145.487 554.838 145.965C553.882 146.156 552.926 146.013 551.97 145.535C551.014 144.961 550.154 144.005 549.389 142.667C543.749 131.292 537.584 123.262 530.893 118.578C524.297 113.894 517.366 111.552 510.102 111.552Z" fill="#060926"/>
<mask id="mask0_777_3532" style="mask-type:alpha" maskUnits="userSpaceOnUse" x="6" y="22" width="555" height="215">
<path d="M116.787 155.333C116.787 158.103 116.023 160.205 114.495 161.638C112.966 163.071 110.721 163.787 107.76 163.787H23.7874V157.769H85.4053C88.5578 157.769 90.1341 156.193 90.1341 153.04C90.1341 139.952 87.6503 129.921 82.6826 122.948C77.715 115.878 71.2666 112.344 63.3375 112.344C56.7458 112.344 50.9661 114.302 45.9985 118.219C41.1264 122.136 37.3529 127.82 34.678 135.271C32.0031 142.627 30.6657 151.559 30.6657 162.068C30.6657 180.601 34.7735 194.74 42.9892 204.484C51.205 214.133 61.8567 218.957 74.9446 218.957C84.2111 218.957 92.0925 216.473 98.5886 211.505C105.085 206.442 109.288 199.946 111.199 192.017C111.772 191.157 112.297 190.584 112.775 190.297C113.253 189.915 113.73 189.724 114.208 189.724C114.972 189.724 115.546 190.011 115.928 190.584C116.31 191.062 116.501 191.874 116.501 193.02C115.737 200.949 113.062 208.162 108.476 214.658C103.986 221.059 97.9677 226.217 90.4207 230.134C82.9692 233.955 74.4191 235.866 64.7704 235.866C53.0201 235.866 42.7504 233.287 33.9615 228.128C25.2681 222.874 18.4854 215.47 13.6133 205.917C8.83668 196.364 6.44839 185.234 6.44839 172.528C6.44839 159.536 8.88444 147.977 13.7566 137.85C18.6287 127.629 25.5547 119.604 34.5347 113.777C43.6102 107.949 54.3097 105.035 66.6333 105.035C76.7597 105.035 85.5486 107.185 93 111.484C100.547 115.783 106.374 121.753 110.482 129.396C114.686 136.943 116.787 145.589 116.787 155.333ZM130.311 116.786L119.564 114.923C118.417 114.541 117.605 114.063 117.128 113.49C116.746 112.821 116.555 112.057 116.555 111.197C116.555 110.242 116.889 109.478 117.558 108.904C118.226 108.236 119.086 107.901 120.137 107.901H131.028C132.174 107.901 133.129 107.663 133.894 107.185C134.658 106.612 135.374 105.609 136.043 104.176L150.373 82.1078C151.233 80.8659 152.092 79.9106 152.952 79.2418C153.907 78.5731 154.911 78.2388 155.961 78.2388C157.012 78.2388 157.872 78.6209 158.541 79.3851C159.209 80.0539 159.544 81.1047 159.544 82.5377V201.761C159.544 208.257 160.833 213.177 163.413 216.521C166.088 219.769 169.813 221.393 174.59 221.393C176.883 221.393 178.889 221.059 180.609 220.39C182.328 219.626 183.857 218.67 185.194 217.524C186.627 216.282 187.869 214.992 188.92 213.655C189.971 212.222 190.974 210.789 191.929 209.356C192.502 209.069 193.028 209.165 193.505 209.643C193.983 210.025 194.174 210.837 194.078 212.079C193.219 216.76 191.499 220.867 188.92 224.402C186.34 227.937 182.997 230.707 178.889 232.713C174.877 234.624 170.148 235.579 164.703 235.579C155.054 235.579 147.507 233.096 142.062 228.128C136.616 223.16 133.894 215.518 133.894 205.2V122.374C133.894 120.75 133.655 119.508 133.177 118.649C132.699 117.693 131.744 117.072 130.311 116.786ZM149.226 115.783L149.656 107.901H190.209C191.547 107.901 192.55 108.188 193.219 108.761C193.887 109.239 194.222 109.955 194.222 110.911C194.222 112.344 193.553 113.538 192.216 114.493C190.974 115.353 189.015 115.783 186.34 115.783H149.226ZM232.793 138.424L229.354 134.555L234.8 129.539C244.257 120.559 252.807 114.254 260.45 110.624C268.188 106.898 275.592 105.035 282.661 105.035C292.787 105.035 301.003 108.236 307.308 114.636C313.709 121.037 316.909 130.447 316.909 142.866V217.667C316.909 219.96 317.339 221.68 318.199 222.826C319.058 223.972 320.396 224.784 322.211 225.262L328.803 226.408C329.758 226.79 330.475 227.268 330.952 227.841C331.43 228.414 331.669 229.083 331.669 229.847C331.669 230.803 331.334 231.567 330.666 232.14C329.997 232.713 329.089 233 327.943 233H279.365C276.881 233 275.639 231.949 275.639 229.847C275.639 228.319 276.547 227.268 278.362 226.695L286.1 225.262C288.011 224.784 289.253 223.972 289.826 222.826C290.495 221.584 290.829 219.864 290.829 217.667V147.165C290.829 137.994 288.679 131.211 284.381 126.817C280.082 122.327 274.445 120.082 267.471 120.082C262.79 120.082 257.966 121.18 252.998 123.377C248.031 125.479 242.92 129.014 237.666 133.981L232.793 138.424ZM235.659 26.3651V218.384C235.659 220.485 235.994 222.062 236.662 223.112C237.331 224.163 238.478 224.88 240.102 225.262L247.553 226.695C249.273 227.268 250.132 228.319 250.132 229.847C250.132 231.949 248.986 233 246.693 233H198.259C197.112 233 196.205 232.713 195.536 232.14C194.963 231.567 194.676 230.803 194.676 229.847C194.676 229.083 194.915 228.414 195.393 227.841C195.966 227.173 196.778 226.647 197.829 226.265L205.137 225.119C206.761 224.641 207.907 223.924 208.576 222.969C209.245 221.918 209.579 220.438 209.579 218.527V43.4175C209.579 41.889 209.34 40.7904 208.863 40.1216C208.385 39.4529 207.573 39.023 206.427 38.832L196.682 38.6887C195.727 38.4976 195.011 38.1632 194.533 37.6856C194.055 37.1124 193.817 36.4437 193.817 35.6794C193.817 34.8196 194.103 34.1031 194.676 33.53C195.249 32.9568 196.157 32.4791 197.399 32.097L225.199 23.6424C226.918 23.0692 228.256 22.6871 229.211 22.496C230.166 22.2094 231.026 22.0662 231.79 22.0662C233.032 22.0662 233.988 22.496 234.656 23.3558C235.325 24.1201 235.659 25.1232 235.659 26.3651ZM396.659 105.035C408.887 105.035 419.729 107.854 429.187 113.49C438.645 119.031 446.048 126.769 451.398 136.704C456.843 146.544 459.566 157.912 459.566 170.809C459.566 183.419 456.796 194.644 451.255 204.484C445.81 214.228 438.263 221.918 428.614 227.555C418.965 233.096 407.883 235.866 395.369 235.866C383.141 235.866 372.298 233.096 362.84 227.555C353.478 222.014 346.122 214.371 340.773 204.627C335.423 194.787 332.748 183.467 332.748 170.666C332.748 157.96 335.423 146.687 340.773 136.847C346.218 127.008 353.717 119.27 363.27 113.633C372.919 107.901 384.048 105.035 396.659 105.035ZM404.826 227.985C411.705 227.125 417.437 224.068 422.022 218.814C426.608 213.464 429.76 206.299 431.48 197.319C433.295 188.243 433.39 177.687 431.766 165.65C430.047 153.136 427.085 142.818 422.882 134.698C418.774 126.578 413.711 120.703 407.692 117.072C401.674 113.347 394.987 111.961 387.631 112.917C380.466 113.777 374.591 116.929 370.005 122.374C365.515 127.724 362.41 134.889 360.691 143.869C359.067 152.849 359.067 163.31 360.691 175.251C362.41 187.479 365.372 197.701 369.575 205.917C373.779 214.037 378.89 220.008 384.908 223.829C391.022 227.555 397.662 228.94 404.826 227.985ZM509.787 111.627C502.909 111.627 497.464 113.442 493.451 117.072C489.439 120.703 487.433 125.384 487.433 131.116C487.433 135.032 488.293 138.519 490.012 141.576C491.827 144.633 494.837 147.404 499.04 149.887C503.339 152.371 509.214 154.807 516.666 157.196C527.747 160.539 536.488 164.217 542.889 168.23C549.29 172.242 553.827 176.875 556.502 182.129C559.273 187.288 560.658 193.211 560.658 199.898C560.658 210.884 556.837 219.673 549.194 226.265C541.552 232.761 530.852 236.009 517.096 236.009C511.459 236.009 506.778 235.436 503.052 234.29C499.422 233.239 496.508 232.188 494.311 231.137C492.21 229.991 490.681 229.418 489.726 229.418C488.675 229.418 487.433 229.991 486 231.137C484.663 232.188 483.277 233.239 481.844 234.29C480.411 235.436 479.169 236.009 478.119 236.009C477.354 236.009 476.638 235.723 475.969 235.149C475.3 234.672 474.679 233.621 474.106 231.997L466.082 200.615C465.604 198.704 465.461 197.128 465.652 195.886C465.938 194.644 466.559 193.832 467.515 193.45C468.661 192.877 469.76 192.877 470.81 193.45C471.861 193.928 472.817 194.835 473.676 196.173C477.689 204.293 481.844 210.789 486.143 215.661C490.442 220.533 495.028 224.068 499.9 226.265C504.867 228.367 510.217 229.418 515.949 229.418C524.069 229.418 530.183 227.507 534.291 223.686C538.495 219.864 540.596 214.945 540.596 208.926C540.596 205.009 539.641 201.475 537.73 198.322C535.915 195.074 532.667 192.16 527.986 189.581C523.401 186.906 516.952 184.374 508.641 181.986C498.801 179.311 490.824 176.063 484.71 172.242C478.692 168.325 474.25 163.787 471.384 158.629C468.613 153.47 467.228 147.547 467.228 140.86C467.228 133.695 468.948 127.438 472.387 122.088C475.826 116.642 480.65 112.439 486.86 109.478C493.165 106.421 500.378 104.892 508.498 104.892C514.039 104.892 518.672 105.609 522.398 107.042C526.123 108.475 529.037 109.907 531.139 111.34C533.336 112.773 534.864 113.49 535.724 113.49C536.488 113.49 537.444 112.821 538.59 111.484C539.737 110.051 540.931 108.666 542.173 107.328C543.415 105.991 544.609 105.322 545.755 105.322C546.615 105.322 547.379 105.609 548.048 106.182C548.717 106.755 549.194 107.758 549.481 109.191L555.786 138.424C556.264 140.716 556.407 142.436 556.216 143.582C556.12 144.729 555.547 145.541 554.496 146.018C553.541 146.21 552.586 146.066 551.63 145.589C550.675 145.015 549.815 144.06 549.051 142.723C543.415 131.354 537.253 123.33 530.566 118.649C523.974 113.968 517.048 111.627 509.787 111.627Z" fill="black"/>
</mask>
<g mask="url(#mask0_777_3532)">
</g>
<mask id="mask1_777_3532" style="mask-type:alpha" maskUnits="userSpaceOnUse" x="6" y="22" width="555" height="215">
<path d="M116.787 155.333C116.787 158.103 116.023 160.205 114.495 161.638C112.966 163.071 110.721 163.787 107.76 163.787H23.7874V157.769H85.4053C88.5578 157.769 90.1341 156.193 90.1341 153.04C90.1341 139.952 87.6503 129.921 82.6826 122.948C77.715 115.878 71.2666 112.344 63.3375 112.344C56.7458 112.344 50.9661 114.302 45.9985 118.219C41.1264 122.136 37.3529 127.82 34.678 135.271C32.0031 142.627 30.6657 151.559 30.6657 162.068C30.6657 180.601 34.7735 194.74 42.9892 204.484C51.205 214.133 61.8567 218.957 74.9446 218.957C84.2111 218.957 92.0925 216.473 98.5886 211.505C105.085 206.442 109.288 199.946 111.199 192.017C111.772 191.157 112.297 190.584 112.775 190.297C113.253 189.915 113.73 189.724 114.208 189.724C114.972 189.724 115.546 190.011 115.928 190.584C116.31 191.062 116.501 191.874 116.501 193.02C115.737 200.949 113.062 208.162 108.476 214.658C103.986 221.059 97.9677 226.217 90.4207 230.134C82.9692 233.955 74.4191 235.866 64.7704 235.866C53.0201 235.866 42.7504 233.287 33.9615 228.128C25.2681 222.874 18.4854 215.47 13.6133 205.917C8.83668 196.364 6.44839 185.234 6.44839 172.528C6.44839 159.536 8.88444 147.977 13.7566 137.85C18.6287 127.629 25.5547 119.604 34.5347 113.777C43.6102 107.949 54.3097 105.035 66.6333 105.035C76.7597 105.035 85.5486 107.185 93 111.484C100.547 115.783 106.374 121.753 110.482 129.396C114.686 136.943 116.787 145.589 116.787 155.333ZM130.311 116.786L119.564 114.923C118.417 114.541 117.605 114.063 117.128 113.49C116.746 112.821 116.555 112.057 116.555 111.197C116.555 110.242 116.889 109.478 117.558 108.904C118.226 108.236 119.086 107.901 120.137 107.901H131.028C132.174 107.901 133.129 107.663 133.894 107.185C134.658 106.612 135.374 105.609 136.043 104.176L150.373 82.1078C151.233 80.8659 152.092 79.9106 152.952 79.2418C153.907 78.5731 154.911 78.2388 155.961 78.2388C157.012 78.2388 157.872 78.6209 158.541 79.3851C159.209 80.0539 159.544 81.1047 159.544 82.5377V201.761C159.544 208.257 160.833 213.177 163.413 216.521C166.088 219.769 169.813 221.393 174.59 221.393C176.883 221.393 178.889 221.059 180.609 220.39C182.328 219.626 183.857 218.67 185.194 217.524C186.627 216.282 187.869 214.992 188.92 213.655C189.971 212.222 190.974 210.789 191.929 209.356C192.502 209.069 193.028 209.165 193.505 209.643C193.983 210.025 194.174 210.837 194.078 212.079C193.219 216.76 191.499 220.867 188.92 224.402C186.34 227.937 182.997 230.707 178.889 232.713C174.877 234.624 170.148 235.579 164.703 235.579C155.054 235.579 147.507 233.096 142.062 228.128C136.616 223.16 133.894 215.518 133.894 205.2V122.374C133.894 120.75 133.655 119.508 133.177 118.649C132.699 117.693 131.744 117.072 130.311 116.786ZM149.226 115.783L149.656 107.901H190.209C191.547 107.901 192.55 108.188 193.219 108.761C193.887 109.239 194.222 109.955 194.222 110.911C194.222 112.344 193.553 113.538 192.216 114.493C190.974 115.353 189.015 115.783 186.34 115.783H149.226ZM232.793 138.424L229.354 134.555L234.8 129.539C244.257 120.559 252.807 114.254 260.45 110.624C268.188 106.898 275.592 105.035 282.661 105.035C292.787 105.035 301.003 108.236 307.308 114.636C313.709 121.037 316.909 130.447 316.909 142.866V217.667C316.909 219.96 317.339 221.68 318.199 222.826C319.058 223.972 320.396 224.784 322.211 225.262L328.803 226.408C329.758 226.79 330.475 227.268 330.952 227.841C331.43 228.414 331.669 229.083 331.669 229.847C331.669 230.803 331.334 231.567 330.666 232.14C329.997 232.713 329.089 233 327.943 233H279.365C276.881 233 275.639 231.949 275.639 229.847C275.639 228.319 276.547 227.268 278.362 226.695L286.1 225.262C288.011 224.784 289.253 223.972 289.826 222.826C290.495 221.584 290.829 219.864 290.829 217.667V147.165C290.829 137.994 288.679 131.211 284.381 126.817C280.082 122.327 274.445 120.082 267.471 120.082C262.79 120.082 257.966 121.18 252.998 123.377C248.031 125.479 242.92 129.014 237.666 133.981L232.793 138.424ZM235.659 26.3651V218.384C235.659 220.485 235.994 222.062 236.662 223.112C237.331 224.163 238.478 224.88 240.102 225.262L247.553 226.695C249.273 227.268 250.132 228.319 250.132 229.847C250.132 231.949 248.986 233 246.693 233H198.259C197.112 233 196.205 232.713 195.536 232.14C194.963 231.567 194.676 230.803 194.676 229.847C194.676 229.083 194.915 228.414 195.393 227.841C195.966 227.173 196.778 226.647 197.829 226.265L205.137 225.119C206.761 224.641 207.907 223.924 208.576 222.969C209.245 221.918 209.579 220.438 209.579 218.527V43.4175C209.579 41.889 209.34 40.7904 208.863 40.1216C208.385 39.4529 207.573 39.023 206.427 38.832L196.682 38.6887C195.727 38.4976 195.011 38.1632 194.533 37.6856C194.055 37.1124 193.817 36.4437 193.817 35.6794C193.817 34.8196 194.103 34.1031 194.676 33.53C195.249 32.9568 196.157 32.4791 197.399 32.097L225.199 23.6424C226.918 23.0692 228.256 22.6871 229.211 22.496C230.166 22.2094 231.026 22.0662 231.79 22.0662C233.032 22.0662 233.988 22.496 234.656 23.3558C235.325 24.1201 235.659 25.1232 235.659 26.3651ZM396.659 105.035C408.887 105.035 419.729 107.854 429.187 113.49C438.645 119.031 446.048 126.769 451.398 136.704C456.843 146.544 459.566 157.912 459.566 170.809C459.566 183.419 456.796 194.644 451.255 204.484C445.81 214.228 438.263 221.918 428.614 227.555C418.965 233.096 407.883 235.866 395.369 235.866C383.141 235.866 372.298 233.096 362.84 227.555C353.478 222.014 346.122 214.371 340.773 204.627C335.423 194.787 332.748 183.467 332.748 170.666C332.748 157.96 335.423 146.687 340.773 136.847C346.218 127.008 353.717 119.27 363.27 113.633C372.919 107.901 384.048 105.035 396.659 105.035ZM404.826 227.985C411.705 227.125 417.437 224.068 422.022 218.814C426.608 213.464 429.76 206.299 431.48 197.319C433.295 188.243 433.39 177.687 431.766 165.65C430.047 153.136 427.085 142.818 422.882 134.698C418.774 126.578 413.711 120.703 407.692 117.072C401.674 113.347 394.987 111.961 387.631 112.917C380.466 113.777 374.591 116.929 370.005 122.374C365.515 127.724 362.41 134.889 360.691 143.869C359.067 152.849 359.067 163.31 360.691 175.251C362.41 187.479 365.372 197.701 369.575 205.917C373.779 214.037 378.89 220.008 384.908 223.829C391.022 227.555 397.662 228.94 404.826 227.985ZM509.787 111.627C502.909 111.627 497.464 113.442 493.451 117.072C489.439 120.703 487.433 125.384 487.433 131.116C487.433 135.032 488.293 138.519 490.012 141.576C491.827 144.633 494.837 147.404 499.04 149.887C503.339 152.371 509.214 154.807 516.666 157.196C527.747 160.539 536.488 164.217 542.889 168.23C549.29 172.242 553.827 176.875 556.502 182.129C559.273 187.288 560.658 193.211 560.658 199.898C560.658 210.884 556.837 219.673 549.194 226.265C541.552 232.761 530.852 236.009 517.096 236.009C511.459 236.009 506.778 235.436 503.052 234.29C499.422 233.239 496.508 232.188 494.311 231.137C492.21 229.991 490.681 229.418 489.726 229.418C488.675 229.418 487.433 229.991 486 231.137C484.663 232.188 483.277 233.239 481.844 234.29C480.411 235.436 479.169 236.009 478.119 236.009C477.354 236.009 476.638 235.723 475.969 235.149C475.3 234.672 474.679 233.621 474.106 231.997L466.082 200.615C465.604 198.704 465.461 197.128 465.652 195.886C465.938 194.644 466.559 193.832 467.515 193.45C468.661 192.877 469.76 192.877 470.81 193.45C471.861 193.928 472.817 194.835 473.676 196.173C477.689 204.293 481.844 210.789 486.143 215.661C490.442 220.533 495.028 224.068 499.9 226.265C504.867 228.367 510.217 229.418 515.949 229.418C524.069 229.418 530.183 227.507 534.291 223.686C538.495 219.864 540.596 214.945 540.596 208.926C540.596 205.009 539.641 201.475 537.73 198.322C535.915 195.074 532.667 192.16 527.986 189.581C523.401 186.906 516.952 184.374 508.641 181.986C498.801 179.311 490.824 176.063 484.71 172.242C478.692 168.325 474.25 163.787 471.384 158.629C468.613 153.47 467.228 147.547 467.228 140.86C467.228 133.695 468.948 127.438 472.387 122.088C475.826 116.642 480.65 112.439 486.86 109.478C493.165 106.421 500.378 104.892 508.498 104.892C514.039 104.892 518.672 105.609 522.398 107.042C526.123 108.475 529.037 109.907 531.139 111.34C533.336 112.773 534.864 113.49 535.724 113.49C536.488 113.49 537.444 112.821 538.59 111.484C539.737 110.051 540.931 108.666 542.173 107.328C543.415 105.991 544.609 105.322 545.755 105.322C546.615 105.322 547.379 105.609 548.048 106.182C548.717 106.755 549.194 107.758 549.481 109.191L555.786 138.424C556.264 140.716 556.407 142.436 556.216 143.582C556.12 144.729 555.547 145.541 554.496 146.018C553.541 146.21 552.586 146.066 551.63 145.589C550.675 145.015 549.815 144.06 549.051 142.723C543.415 131.354 537.253 123.33 530.566 118.649C523.974 113.968 517.048 111.627 509.787 111.627Z" fill="black"/>
</mask>
<g mask="url(#mask1_777_3532)">
<rect width="731.961" height="21.5283" transform="matrix(1 0 0 -1 -71.4218 226.048)" fill="#4B4B4F"/>
<rect width="731.961" height="8.07309" transform="matrix(1 0 0 -1 -71.4218 199.137)" fill="#4B4B4F"/>
</g>
</svg>
