<svg width="367" height="197" viewBox="0 0 367 197" fill="none" xmlns="http://www.w3.org/2000/svg">
<g clip-path="url(#clip0_764_9367)">
<rect width="367" height="197" fill="white"/>
<g clip-path="url(#clip1_764_9367)">
<path d="M389.502 -1.64453H-7.98438V197.099H389.502V-1.64453Z" fill="#08BDBA"/>
<path d="M-11.0898 94.6211H47.912" stroke="white" stroke-width="0.77634" stroke-linecap="round" stroke-linejoin="round"/>
<path d="M-11.0898 91.5156H47.912" stroke="white" stroke-width="0.77634" stroke-linecap="round" stroke-linejoin="round"/>
<path d="M-11.0898 88.4102H47.912" stroke="white" stroke-width="0.77634" stroke-linecap="round" stroke-linejoin="round"/>
<path d="M-11.0898 97.7266H47.912" stroke="white" stroke-width="0.77634" stroke-linecap="round" stroke-linejoin="round"/>
<path d="M-11.0898 100.832H47.912" stroke="white" stroke-width="0.77634" stroke-linecap="round" stroke-linejoin="round"/>
<path d="M82.0664 94.6211H159.7" stroke="white" stroke-width="0.77634" stroke-linecap="round" stroke-linejoin="round"/>
<path d="M82.0664 91.5156H159.7" stroke="white" stroke-width="0.77634" stroke-linecap="round" stroke-linejoin="round"/>
<path d="M82.0664 88.4102H159.7" stroke="white" stroke-width="0.77634" stroke-linecap="round" stroke-linejoin="round"/>
<path d="M82.0664 97.7266H159.7" stroke="white" stroke-width="0.77634" stroke-linecap="round" stroke-linejoin="round"/>
<path d="M82.0664 100.832H159.7" stroke="white" stroke-width="0.77634" stroke-linecap="round" stroke-linejoin="round"/>
<path d="M271.496 94.625V197.102" stroke="white" stroke-width="0.77634" stroke-linecap="round" stroke-linejoin="round"/>
<path d="M274.602 94.625V197.102" stroke="white" stroke-width="0.77634" stroke-linecap="round" stroke-linejoin="round"/>
<path d="M277.707 94.625V197.102" stroke="white" stroke-width="0.77634" stroke-linecap="round" stroke-linejoin="round"/>
<path d="M268.391 94.625V197.102" stroke="white" stroke-width="0.77634" stroke-linecap="round" stroke-linejoin="round"/>
<path d="M265.285 94.625V159.838" stroke="white" stroke-width="0.77634" stroke-linecap="round" stroke-linejoin="round"/>
<path d="M85.1771 94.6237C85.1771 74.0429 68.4935 57.3594 47.9128 57.3594C27.332 57.3594 10.6484 74.0429 10.6484 94.6237" stroke="white" stroke-width="0.77634" stroke-linecap="round" stroke-linejoin="round"/>
<path d="M47.9115 94.6237C47.9115 74.0429 31.2279 57.3594 10.6471 57.3594C-9.93364 57.3594 -26.6172 74.0429 -26.6172 94.6237" stroke="white" stroke-width="0.77634" stroke-linecap="round" stroke-linejoin="round"/>
<path d="M234.233 94.6243C234.233 84.334 225.891 75.9922 215.601 75.9922C205.311 75.9922 196.969 84.334 196.969 94.6243" stroke="white" stroke-width="0.77634" stroke-linecap="round" stroke-linejoin="round"/>
<path d="M383.292 94.6243C383.292 84.334 374.95 75.9922 364.66 75.9922C354.369 75.9922 346.027 84.334 346.027 94.6243" stroke="white" stroke-width="0.77634" stroke-linecap="round" stroke-linejoin="round"/>
<path d="M308.76 94.6224C308.76 53.4608 275.393 20.0938 234.232 20.0938C193.07 20.0938 159.703 53.4608 159.703 94.6224" stroke="white" stroke-width="0.77634" stroke-linecap="round" stroke-linejoin="round"/>
<path d="M271.496 94.6231C271.496 63.7519 246.471 38.7266 215.6 38.7266C184.728 38.7266 159.703 63.7519 159.703 94.6231" stroke="white" stroke-width="0.77634" stroke-linecap="round" stroke-linejoin="round"/>
<path d="M234.232 94.6237C234.232 74.0429 217.548 57.3594 196.967 57.3594C176.387 57.3594 159.703 74.0429 159.703 94.6237" stroke="white" stroke-width="0.77634" stroke-linecap="round" stroke-linejoin="round"/>
<path d="M178.346 -12.4297C144.552 11.14 122.441 50.2986 122.441 94.6237" stroke="white" stroke-width="0.77634" stroke-linecap="round" stroke-linejoin="round"/>
<path d="M383.291 94.6231C383.291 48.0155 358.448 7.16063 321.184 -15.6172" stroke="white" stroke-width="0.77634" stroke-linecap="round" stroke-linejoin="round"/>
<path d="M196.967 94.6243C196.967 84.334 188.626 75.9922 178.335 75.9922C168.045 75.9922 159.703 84.334 159.703 94.6243" stroke="white" stroke-width="0.77634" stroke-linecap="round" stroke-linejoin="round"/>
<path d="M85.1758 94.625C85.1758 135.787 118.543 169.154 159.704 169.154C200.866 169.154 234.233 135.787 234.233 94.625" stroke="white" stroke-width="0.77634" stroke-linecap="round" stroke-linejoin="round"/>
<path d="M10.6481 103.941C15.7932 103.941 19.9642 99.7698 19.9642 94.6247C19.9642 89.4795 15.7932 85.3086 10.6481 85.3086C5.50298 85.3086 1.33203 89.4795 1.33203 94.6247C1.33203 99.7698 5.50298 103.941 10.6481 103.941Z" fill="#00539A" stroke="white" stroke-width="0.77634" stroke-linecap="round" stroke-linejoin="round"/>
<path d="M47.9137 103.941C53.0589 103.941 57.2298 99.7698 57.2298 94.6247C57.2298 89.4795 53.0589 85.3086 47.9137 85.3086C42.7686 85.3086 38.5977 89.4795 38.5977 94.6247C38.5977 99.7698 42.7686 103.941 47.9137 103.941Z" fill="#08BDBA" stroke="white" stroke-width="0.77634" stroke-linecap="round" stroke-linejoin="round"/>
<path d="M85.1755 103.941C90.3206 103.941 94.4915 99.7698 94.4915 94.6247C94.4915 89.4795 90.3206 85.3086 85.1755 85.3086C80.0303 85.3086 75.8594 89.4795 75.8594 94.6247C75.8594 99.7698 80.0303 103.941 85.1755 103.941Z" fill="#00539A" stroke="white" stroke-width="0.77634" stroke-linecap="round" stroke-linejoin="round"/>
<path d="M122.441 103.941C127.586 103.941 131.757 99.7698 131.757 94.6247C131.757 89.4795 127.586 85.3086 122.441 85.3086C117.296 85.3086 113.125 89.4795 113.125 94.6247C113.125 99.7698 117.296 103.941 122.441 103.941Z" fill="#08BDBA" stroke="white" stroke-width="0.77634" stroke-linecap="round" stroke-linejoin="round"/>
<path d="M159.703 103.941C164.848 103.941 169.019 99.7698 169.019 94.6247C169.019 89.4795 164.848 85.3086 159.703 85.3086C154.558 85.3086 150.387 89.4795 150.387 94.6247C150.387 99.7698 154.558 103.941 159.703 103.941Z" fill="#00539A" stroke="white" stroke-width="0.77634" stroke-linecap="round" stroke-linejoin="round"/>
<path d="M159.703 172.258C161.418 172.258 162.808 170.867 162.808 169.152C162.808 167.437 161.418 166.047 159.703 166.047C157.988 166.047 156.598 167.437 156.598 169.152C156.598 170.867 157.988 172.258 159.703 172.258Z" fill="#00539A" stroke="white" stroke-width="0.77634" stroke-linecap="round" stroke-linejoin="round"/>
<path d="M234.234 23.199C235.949 23.199 237.34 21.8087 237.34 20.0936C237.34 18.3786 235.949 16.9883 234.234 16.9883C232.519 16.9883 231.129 18.3786 231.129 20.0936C231.129 21.8087 232.519 23.199 234.234 23.199Z" fill="#08BDBA" stroke="white" stroke-width="0.77634" stroke-linecap="round" stroke-linejoin="round"/>
<path d="M361.551 26.3045C363.266 26.3045 364.656 24.9142 364.656 23.1991C364.656 21.4841 363.266 20.0938 361.551 20.0938C359.836 20.0938 358.445 21.4841 358.445 23.1991C358.445 24.9142 359.836 26.3045 361.551 26.3045Z" fill="#00539A" stroke="white" stroke-width="0.77634" stroke-linecap="round" stroke-linejoin="round"/>
<path d="M305.656 75.9881C307.371 75.9881 308.762 74.5977 308.762 72.8827C308.762 71.1677 307.371 69.7773 305.656 69.7773C303.941 69.7773 302.551 71.1677 302.551 72.8827C302.551 74.5977 303.941 75.9881 305.656 75.9881Z" fill="#00539A" stroke="white" stroke-width="0.77634" stroke-linecap="round" stroke-linejoin="round"/>
<path d="M234.234 103.941C239.379 103.941 243.55 99.7698 243.55 94.6247C243.55 89.4795 239.379 85.3086 234.234 85.3086C229.089 85.3086 224.918 89.4795 224.918 94.6247C224.918 99.7698 229.089 103.941 234.234 103.941Z" fill="#00539A" stroke="white" stroke-width="0.77634" stroke-linecap="round" stroke-linejoin="round"/>
<path d="M271.496 103.941C276.641 103.941 280.812 99.7698 280.812 94.6247C280.812 89.4795 276.641 85.3086 271.496 85.3086C266.351 85.3086 262.18 89.4795 262.18 94.6247C262.18 99.7698 266.351 103.941 271.496 103.941Z" fill="#08BDBA" stroke="white" stroke-width="0.77634" stroke-linecap="round" stroke-linejoin="round"/>
<path d="M308.761 103.941C313.907 103.941 318.077 99.7698 318.077 94.6247C318.077 89.4795 313.907 85.3086 308.761 85.3086C303.616 85.3086 299.445 89.4795 299.445 94.6247C299.445 99.7698 303.616 103.941 308.761 103.941Z" fill="#08BDBA" stroke="white" stroke-width="0.77634" stroke-linecap="round" stroke-linejoin="round"/>
<path d="M346.027 103.941C351.172 103.941 355.343 99.7698 355.343 94.6247C355.343 89.4795 351.172 85.3086 346.027 85.3086C340.882 85.3086 336.711 89.4795 336.711 94.6247C336.711 99.7698 340.882 103.941 346.027 103.941Z" fill="#00539A" stroke="white" stroke-width="0.77634" stroke-linecap="round" stroke-linejoin="round"/>
<path d="M271.5 97.7303C273.215 97.7303 274.605 96.3399 274.605 94.6249C274.605 92.9098 273.215 91.5195 271.5 91.5195C269.785 91.5195 268.395 92.9098 268.395 94.6249C268.395 96.3399 269.785 97.7303 271.5 97.7303Z" fill="#00539A" stroke="white" stroke-width="0.77634" stroke-linecap="round" stroke-linejoin="round"/>
<path d="M159.703 97.7303C161.418 97.7303 162.808 96.3399 162.808 94.6249C162.808 92.9098 161.418 91.5195 159.703 91.5195C157.988 91.5195 156.598 92.9098 156.598 94.6249C156.598 96.3399 157.988 97.7303 159.703 97.7303Z" fill="#08BDBA" stroke="white" stroke-width="0.77634" stroke-linecap="round" stroke-linejoin="round"/>
<path d="M122.441 97.7303C124.156 97.7303 125.547 96.3399 125.547 94.6249C125.547 92.9098 124.156 91.5195 122.441 91.5195C120.726 91.5195 119.336 92.9098 119.336 94.6249C119.336 96.3399 120.726 97.7303 122.441 97.7303Z" fill="#00539A" stroke="white" stroke-width="0.77634" stroke-linecap="round" stroke-linejoin="round"/>
<path d="M125.547 69.781C127.262 69.781 128.652 68.3907 128.652 66.6757C128.652 64.9606 127.262 63.5703 125.547 63.5703C123.832 63.5703 122.441 64.9606 122.441 66.6757C122.441 68.3907 123.832 69.781 125.547 69.781Z" fill="#08BDBA" stroke="white" stroke-width="0.77634" stroke-linecap="round" stroke-linejoin="round"/>
<path d="M51.0154 54.2539H44.8047V60.4646H51.0154V54.2539Z" fill="#00539A" stroke="white" stroke-width="0.77634" stroke-linecap="round" stroke-linejoin="round"/>
<path d="M156.597 7.67188H150.387V13.8826H156.597V7.67188Z" fill="#00539A" stroke="white" stroke-width="0.77634" stroke-linecap="round" stroke-linejoin="round"/>
<path d="M110.019 144.309H103.809V150.519H110.019V144.309Z" fill="#08BDBA" stroke="white" stroke-width="0.77634" stroke-linecap="round" stroke-linejoin="round"/>
<path d="M224.918 63.5703H218.707V69.781H224.918V63.5703Z" fill="#00539A" stroke="white" stroke-width="0.77634" stroke-linecap="round" stroke-linejoin="round"/>
<path d="M311.867 91.5195H305.656V97.7303H311.867V91.5195Z" fill="#00539A" stroke="white" stroke-width="0.77634" stroke-linecap="round" stroke-linejoin="round"/>
<path d="M206.285 85.3086H187.652V103.941H206.285V85.3086Z" fill="#08BDBA" stroke="white" stroke-width="0.77634" stroke-linecap="round" stroke-linejoin="round"/>
<path d="M265.285 159.836H246.652V197.1H265.285V159.836Z" stroke="white" stroke-width="0.77634" stroke-linecap="round" stroke-linejoin="round"/>
<path d="M231.128 172.258H212.496V197.101H231.128V172.258Z" stroke="white" stroke-width="0.77634" stroke-linecap="round" stroke-linejoin="round"/>
<path d="M212.495 141.203H193.863V197.1H212.495V141.203Z" fill="#08BDBA" stroke="white" stroke-width="0.77634" stroke-linecap="round" stroke-linejoin="round"/>
<path d="M88.2806 159.836H69.6484V197.1H88.2806V159.836Z" fill="#08BDBA" stroke="white" stroke-width="0.77634" stroke-linecap="round" stroke-linejoin="round"/>
<path d="M314.972 153.625H296.34V197.1H314.972V153.625Z" stroke="white" stroke-width="0.77634" stroke-linecap="round" stroke-linejoin="round"/>
<path d="M249.758 162.941V166.047" stroke="white" stroke-width="0.77634" stroke-linecap="round" stroke-linejoin="round"/>
<path d="M252.863 162.941V166.047" stroke="white" stroke-width="0.77634" stroke-linecap="round" stroke-linejoin="round"/>
<path d="M255.969 162.941V166.047" stroke="white" stroke-width="0.77634" stroke-linecap="round" stroke-linejoin="round"/>
<path d="M259.074 162.941V166.047" stroke="white" stroke-width="0.77634" stroke-linecap="round" stroke-linejoin="round"/>
<path d="M262.18 162.941V166.047" stroke="white" stroke-width="0.77634" stroke-linecap="round" stroke-linejoin="round"/>
<path d="M196.965 162.941V166.047" stroke="white" stroke-width="0.77634" stroke-linecap="round" stroke-linejoin="round"/>
<path d="M200.07 162.941V166.047" stroke="white" stroke-width="0.77634" stroke-linecap="round" stroke-linejoin="round"/>
<path d="M203.176 162.941V166.047" stroke="white" stroke-width="0.77634" stroke-linecap="round" stroke-linejoin="round"/>
<path d="M206.281 162.941V166.047" stroke="white" stroke-width="0.77634" stroke-linecap="round" stroke-linejoin="round"/>
<path d="M209.387 162.941V166.047" stroke="white" stroke-width="0.77634" stroke-linecap="round" stroke-linejoin="round"/>
<path d="M196.965 156.73V159.836" stroke="white" stroke-width="0.77634" stroke-linecap="round" stroke-linejoin="round"/>
<path d="M200.07 156.73V159.836" stroke="white" stroke-width="0.77634" stroke-linecap="round" stroke-linejoin="round"/>
<path d="M203.176 156.73V159.836" stroke="white" stroke-width="0.77634" stroke-linecap="round" stroke-linejoin="round"/>
<path d="M206.281 156.73V159.836" stroke="white" stroke-width="0.77634" stroke-linecap="round" stroke-linejoin="round"/>
<path d="M209.387 156.73V159.836" stroke="white" stroke-width="0.77634" stroke-linecap="round" stroke-linejoin="round"/>
<path d="M196.965 150.516V153.621" stroke="white" stroke-width="0.77634" stroke-linecap="round" stroke-linejoin="round"/>
<path d="M200.07 150.516V153.621" stroke="white" stroke-width="0.77634" stroke-linecap="round" stroke-linejoin="round"/>
<path d="M203.176 150.516V153.621" stroke="white" stroke-width="0.77634" stroke-linecap="round" stroke-linejoin="round"/>
<path d="M206.281 150.516V153.621" stroke="white" stroke-width="0.77634" stroke-linecap="round" stroke-linejoin="round"/>
<path d="M209.387 150.516V153.621" stroke="white" stroke-width="0.77634" stroke-linecap="round" stroke-linejoin="round"/>
<path d="M196.965 144.305V147.41" stroke="white" stroke-width="0.77634" stroke-linecap="round" stroke-linejoin="round"/>
<path d="M200.07 144.305V147.41" stroke="white" stroke-width="0.77634" stroke-linecap="round" stroke-linejoin="round"/>
<path d="M203.176 144.305V147.41" stroke="white" stroke-width="0.77634" stroke-linecap="round" stroke-linejoin="round"/>
<path d="M206.281 144.305V147.41" stroke="white" stroke-width="0.77634" stroke-linecap="round" stroke-linejoin="round"/>
<path d="M209.387 144.305V147.41" stroke="white" stroke-width="0.77634" stroke-linecap="round" stroke-linejoin="round"/>
<path d="M196.965 187.789V190.894" stroke="white" stroke-width="0.77634" stroke-linecap="round" stroke-linejoin="round"/>
<path d="M200.07 187.789V190.894" stroke="white" stroke-width="0.77634" stroke-linecap="round" stroke-linejoin="round"/>
<path d="M203.176 187.789V190.894" stroke="white" stroke-width="0.77634" stroke-linecap="round" stroke-linejoin="round"/>
<path d="M206.281 187.789V190.894" stroke="white" stroke-width="0.77634" stroke-linecap="round" stroke-linejoin="round"/>
<path d="M209.387 187.789V190.894" stroke="white" stroke-width="0.77634" stroke-linecap="round" stroke-linejoin="round"/>
<path d="M196.965 181.574V184.68" stroke="white" stroke-width="0.77634" stroke-linecap="round" stroke-linejoin="round"/>
<path d="M200.07 181.574V184.68" stroke="white" stroke-width="0.77634" stroke-linecap="round" stroke-linejoin="round"/>
<path d="M203.176 181.574V184.68" stroke="white" stroke-width="0.77634" stroke-linecap="round" stroke-linejoin="round"/>
<path d="M206.281 181.574V184.68" stroke="white" stroke-width="0.77634" stroke-linecap="round" stroke-linejoin="round"/>
<path d="M209.387 181.574V184.68" stroke="white" stroke-width="0.77634" stroke-linecap="round" stroke-linejoin="round"/>
<path d="M196.965 175.363V178.469" stroke="white" stroke-width="0.77634" stroke-linecap="round" stroke-linejoin="round"/>
<path d="M200.07 175.363V178.469" stroke="white" stroke-width="0.77634" stroke-linecap="round" stroke-linejoin="round"/>
<path d="M203.176 175.363V178.469" stroke="white" stroke-width="0.77634" stroke-linecap="round" stroke-linejoin="round"/>
<path d="M206.281 175.363V178.469" stroke="white" stroke-width="0.77634" stroke-linecap="round" stroke-linejoin="round"/>
<path d="M209.387 175.363V178.469" stroke="white" stroke-width="0.77634" stroke-linecap="round" stroke-linejoin="round"/>
<path d="M196.965 169.152V172.258" stroke="white" stroke-width="0.77634" stroke-linecap="round" stroke-linejoin="round"/>
<path d="M200.07 169.152V172.258" stroke="white" stroke-width="0.77634" stroke-linecap="round" stroke-linejoin="round"/>
<path d="M203.176 169.152V172.258" stroke="white" stroke-width="0.77634" stroke-linecap="round" stroke-linejoin="round"/>
<path d="M206.281 169.152V172.258" stroke="white" stroke-width="0.77634" stroke-linecap="round" stroke-linejoin="round"/>
<path d="M209.387 169.152V172.258" stroke="white" stroke-width="0.77634" stroke-linecap="round" stroke-linejoin="round"/>
<path d="M72.75 187.789V190.894" stroke="white" stroke-width="0.77634" stroke-linecap="round" stroke-linejoin="round"/>
<path d="M75.8555 187.789V190.894" stroke="white" stroke-width="0.77634" stroke-linecap="round" stroke-linejoin="round"/>
<path d="M78.9609 187.789V190.894" stroke="white" stroke-width="0.77634" stroke-linecap="round" stroke-linejoin="round"/>
<path d="M82.0664 187.789V190.894" stroke="white" stroke-width="0.77634" stroke-linecap="round" stroke-linejoin="round"/>
<path d="M85.1719 187.789V190.894" stroke="white" stroke-width="0.77634" stroke-linecap="round" stroke-linejoin="round"/>
<path d="M72.75 181.574V184.68" stroke="white" stroke-width="0.77634" stroke-linecap="round" stroke-linejoin="round"/>
<path d="M75.8555 181.574V184.68" stroke="white" stroke-width="0.77634" stroke-linecap="round" stroke-linejoin="round"/>
<path d="M78.9609 181.574V184.68" stroke="white" stroke-width="0.77634" stroke-linecap="round" stroke-linejoin="round"/>
<path d="M82.0664 181.574V184.68" stroke="white" stroke-width="0.77634" stroke-linecap="round" stroke-linejoin="round"/>
<path d="M85.1719 181.574V184.68" stroke="white" stroke-width="0.77634" stroke-linecap="round" stroke-linejoin="round"/>
<path d="M72.75 175.363V178.469" stroke="white" stroke-width="0.77634" stroke-linecap="round" stroke-linejoin="round"/>
<path d="M75.8555 175.363V178.469" stroke="white" stroke-width="0.77634" stroke-linecap="round" stroke-linejoin="round"/>
<path d="M78.9609 175.363V178.469" stroke="white" stroke-width="0.77634" stroke-linecap="round" stroke-linejoin="round"/>
<path d="M82.0664 175.363V178.469" stroke="white" stroke-width="0.77634" stroke-linecap="round" stroke-linejoin="round"/>
<path d="M85.1719 175.363V178.469" stroke="white" stroke-width="0.77634" stroke-linecap="round" stroke-linejoin="round"/>
<path d="M72.75 169.152V172.258" stroke="white" stroke-width="0.77634" stroke-linecap="round" stroke-linejoin="round"/>
<path d="M75.8555 169.152V172.258" stroke="white" stroke-width="0.77634" stroke-linecap="round" stroke-linejoin="round"/>
<path d="M78.9609 169.152V172.258" stroke="white" stroke-width="0.77634" stroke-linecap="round" stroke-linejoin="round"/>
<path d="M82.0664 169.152V172.258" stroke="white" stroke-width="0.77634" stroke-linecap="round" stroke-linejoin="round"/>
<path d="M85.1719 169.152V172.258" stroke="white" stroke-width="0.77634" stroke-linecap="round" stroke-linejoin="round"/>
<path d="M72.75 181.578V184.683" stroke="white" stroke-width="0.77634" stroke-linecap="round" stroke-linejoin="round"/>
<path d="M75.8555 181.578V184.683" stroke="white" stroke-width="0.77634" stroke-linecap="round" stroke-linejoin="round"/>
<path d="M78.9609 181.578V184.683" stroke="white" stroke-width="0.77634" stroke-linecap="round" stroke-linejoin="round"/>
<path d="M82.0664 181.578V184.683" stroke="white" stroke-width="0.77634" stroke-linecap="round" stroke-linejoin="round"/>
<path d="M85.1719 181.578V184.683" stroke="white" stroke-width="0.77634" stroke-linecap="round" stroke-linejoin="round"/>
<path d="M72.75 175.367V178.473" stroke="white" stroke-width="0.77634" stroke-linecap="round" stroke-linejoin="round"/>
<path d="M75.8555 175.367V178.473" stroke="white" stroke-width="0.77634" stroke-linecap="round" stroke-linejoin="round"/>
<path d="M78.9609 175.367V178.473" stroke="white" stroke-width="0.77634" stroke-linecap="round" stroke-linejoin="round"/>
<path d="M82.0664 175.367V178.473" stroke="white" stroke-width="0.77634" stroke-linecap="round" stroke-linejoin="round"/>
<path d="M85.1719 175.367V178.473" stroke="white" stroke-width="0.77634" stroke-linecap="round" stroke-linejoin="round"/>
<path d="M72.75 169.152V172.258" stroke="white" stroke-width="0.77634" stroke-linecap="round" stroke-linejoin="round"/>
<path d="M75.8555 169.152V172.258" stroke="white" stroke-width="0.77634" stroke-linecap="round" stroke-linejoin="round"/>
<path d="M78.9609 169.152V172.258" stroke="white" stroke-width="0.77634" stroke-linecap="round" stroke-linejoin="round"/>
<path d="M82.0664 169.152V172.258" stroke="white" stroke-width="0.77634" stroke-linecap="round" stroke-linejoin="round"/>
<path d="M85.1719 169.152V172.258" stroke="white" stroke-width="0.77634" stroke-linecap="round" stroke-linejoin="round"/>
<path d="M72.75 162.945V166.051" stroke="white" stroke-width="0.77634" stroke-linecap="round" stroke-linejoin="round"/>
<path d="M75.8555 162.945V166.051" stroke="white" stroke-width="0.77634" stroke-linecap="round" stroke-linejoin="round"/>
<path d="M78.9609 162.945V166.051" stroke="white" stroke-width="0.77634" stroke-linecap="round" stroke-linejoin="round"/>
<path d="M82.0664 162.945V166.051" stroke="white" stroke-width="0.77634" stroke-linecap="round" stroke-linejoin="round"/>
<path d="M85.1719 162.945V166.051" stroke="white" stroke-width="0.77634" stroke-linecap="round" stroke-linejoin="round"/>
<path d="M249.758 169.152V172.258" stroke="white" stroke-width="0.77634" stroke-linecap="round" stroke-linejoin="round"/>
<path d="M252.863 169.152V172.258" stroke="white" stroke-width="0.77634" stroke-linecap="round" stroke-linejoin="round"/>
<path d="M255.969 169.152V172.258" stroke="white" stroke-width="0.77634" stroke-linecap="round" stroke-linejoin="round"/>
<path d="M259.074 169.152V172.258" stroke="white" stroke-width="0.77634" stroke-linecap="round" stroke-linejoin="round"/>
<path d="M262.18 169.152V172.258" stroke="white" stroke-width="0.77634" stroke-linecap="round" stroke-linejoin="round"/>
<path d="M249.758 175.363V178.469" stroke="white" stroke-width="0.77634" stroke-linecap="round" stroke-linejoin="round"/>
<path d="M252.863 175.363V178.469" stroke="white" stroke-width="0.77634" stroke-linecap="round" stroke-linejoin="round"/>
<path d="M255.969 175.363V178.469" stroke="white" stroke-width="0.77634" stroke-linecap="round" stroke-linejoin="round"/>
<path d="M259.074 175.363V178.469" stroke="white" stroke-width="0.77634" stroke-linecap="round" stroke-linejoin="round"/>
<path d="M262.18 175.363V178.469" stroke="white" stroke-width="0.77634" stroke-linecap="round" stroke-linejoin="round"/>
<path d="M249.758 181.574V184.68" stroke="white" stroke-width="0.77634" stroke-linecap="round" stroke-linejoin="round"/>
<path d="M252.863 181.574V184.68" stroke="white" stroke-width="0.77634" stroke-linecap="round" stroke-linejoin="round"/>
<path d="M255.969 181.574V184.68" stroke="white" stroke-width="0.77634" stroke-linecap="round" stroke-linejoin="round"/>
<path d="M259.074 181.574V184.68" stroke="white" stroke-width="0.77634" stroke-linecap="round" stroke-linejoin="round"/>
<path d="M262.18 181.574V184.68" stroke="white" stroke-width="0.77634" stroke-linecap="round" stroke-linejoin="round"/>
<path d="M249.758 187.785V190.891" stroke="white" stroke-width="0.77634" stroke-linecap="round" stroke-linejoin="round"/>
<path d="M252.863 187.785V190.891" stroke="white" stroke-width="0.77634" stroke-linecap="round" stroke-linejoin="round"/>
<path d="M255.969 187.785V190.891" stroke="white" stroke-width="0.77634" stroke-linecap="round" stroke-linejoin="round"/>
<path d="M259.074 187.785V190.891" stroke="white" stroke-width="0.77634" stroke-linecap="round" stroke-linejoin="round"/>
<path d="M262.18 187.785V190.891" stroke="white" stroke-width="0.77634" stroke-linecap="round" stroke-linejoin="round"/>
<path d="M69.6475 141.199H41.6992V197.096H69.6475V141.199Z" fill="#08BDBA" stroke="white" stroke-width="0.77634" stroke-linecap="round" stroke-linejoin="round"/>
<path d="M60.3319 144.301H57.2266V147.406H60.3319V144.301Z" stroke="white" stroke-width="0.77634" stroke-linecap="round" stroke-linejoin="round"/>
<path d="M54.121 144.301H51.0156V147.406H54.121V144.301Z" stroke="white" stroke-width="0.77634" stroke-linecap="round" stroke-linejoin="round"/>
<path d="M47.91 144.301H44.8047V147.406H47.91V144.301Z" stroke="white" stroke-width="0.77634" stroke-linecap="round" stroke-linejoin="round"/>
<path d="M66.5429 144.301H63.4375V147.406H66.5429V144.301Z" stroke="white" stroke-width="0.77634" stroke-linecap="round" stroke-linejoin="round"/>
<path d="M60.3319 150.516H57.2266V153.621H60.3319V150.516Z" stroke="white" stroke-width="0.77634" stroke-linecap="round" stroke-linejoin="round"/>
<path d="M54.121 150.516H51.0156V153.621H54.121V150.516Z" stroke="white" stroke-width="0.77634" stroke-linecap="round" stroke-linejoin="round"/>
<path d="M47.91 150.516H44.8047V153.621H47.91V150.516Z" stroke="white" stroke-width="0.77634" stroke-linecap="round" stroke-linejoin="round"/>
<path d="M66.5429 150.516H63.4375V153.621H66.5429V150.516Z" stroke="white" stroke-width="0.77634" stroke-linecap="round" stroke-linejoin="round"/>
<path d="M60.3319 156.727H57.2266V159.832H60.3319V156.727Z" stroke="white" stroke-width="0.77634" stroke-linecap="round" stroke-linejoin="round"/>
<path d="M54.121 156.727H51.0156V159.832H54.121V156.727Z" stroke="white" stroke-width="0.77634" stroke-linecap="round" stroke-linejoin="round"/>
<path d="M47.91 156.727H44.8047V159.832H47.91V156.727Z" stroke="white" stroke-width="0.77634" stroke-linecap="round" stroke-linejoin="round"/>
<path d="M66.5429 156.727H63.4375V159.832H66.5429V156.727Z" stroke="white" stroke-width="0.77634" stroke-linecap="round" stroke-linejoin="round"/>
<path d="M60.3319 162.934H57.2266V166.039H60.3319V162.934Z" stroke="white" stroke-width="0.77634" stroke-linecap="round" stroke-linejoin="round"/>
<path d="M54.121 162.934H51.0156V166.039H54.121V162.934Z" stroke="white" stroke-width="0.77634" stroke-linecap="round" stroke-linejoin="round"/>
<path d="M47.91 162.934H44.8047V166.039H47.91V162.934Z" stroke="white" stroke-width="0.77634" stroke-linecap="round" stroke-linejoin="round"/>
<path d="M66.5429 162.934H63.4375V166.039H66.5429V162.934Z" stroke="white" stroke-width="0.77634" stroke-linecap="round" stroke-linejoin="round"/>
<path d="M60.3319 169.148H57.2266V172.254H60.3319V169.148Z" stroke="white" stroke-width="0.77634" stroke-linecap="round" stroke-linejoin="round"/>
<path d="M54.121 169.148H51.0156V172.254H54.121V169.148Z" stroke="white" stroke-width="0.77634" stroke-linecap="round" stroke-linejoin="round"/>
<path d="M47.91 169.148H44.8047V172.254H47.91V169.148Z" stroke="white" stroke-width="0.77634" stroke-linecap="round" stroke-linejoin="round"/>
<path d="M66.5429 169.148H63.4375V172.254H66.5429V169.148Z" stroke="white" stroke-width="0.77634" stroke-linecap="round" stroke-linejoin="round"/>
<path d="M60.3319 175.359H57.2266V178.465H60.3319V175.359Z" stroke="white" stroke-width="0.77634" stroke-linecap="round" stroke-linejoin="round"/>
<path d="M54.121 175.359H51.0156V178.465H54.121V175.359Z" stroke="white" stroke-width="0.77634" stroke-linecap="round" stroke-linejoin="round"/>
<path d="M47.91 175.359H44.8047V178.465H47.91V175.359Z" stroke="white" stroke-width="0.77634" stroke-linecap="round" stroke-linejoin="round"/>
<path d="M66.5429 175.359H63.4375V178.465H66.5429V175.359Z" stroke="white" stroke-width="0.77634" stroke-linecap="round" stroke-linejoin="round"/>
<path d="M60.3319 181.566H57.2266V184.672H60.3319V181.566Z" stroke="white" stroke-width="0.77634" stroke-linecap="round" stroke-linejoin="round"/>
<path d="M54.121 181.566H51.0156V184.672H54.121V181.566Z" stroke="white" stroke-width="0.77634" stroke-linecap="round" stroke-linejoin="round"/>
<path d="M47.91 181.566H44.8047V184.672H47.91V181.566Z" stroke="white" stroke-width="0.77634" stroke-linecap="round" stroke-linejoin="round"/>
<path d="M66.5429 181.566H63.4375V184.672H66.5429V181.566Z" stroke="white" stroke-width="0.77634" stroke-linecap="round" stroke-linejoin="round"/>
<path d="M60.3319 187.777H57.2266V190.883H60.3319V187.777Z" stroke="white" stroke-width="0.77634" stroke-linecap="round" stroke-linejoin="round"/>
<path d="M54.121 187.777H51.0156V190.883H54.121V187.777Z" stroke="white" stroke-width="0.77634" stroke-linecap="round" stroke-linejoin="round"/>
<path d="M47.91 187.777H44.8047V190.883H47.91V187.777Z" stroke="white" stroke-width="0.77634" stroke-linecap="round" stroke-linejoin="round"/>
<path d="M66.5429 187.777H63.4375V190.883H66.5429V187.777Z" stroke="white" stroke-width="0.77634" stroke-linecap="round" stroke-linejoin="round"/>
<path d="M364.655 141.199H336.707V197.096H364.655V141.199Z" fill="#08BDBA" stroke="white" stroke-width="0.77634" stroke-linecap="round" stroke-linejoin="round"/>
<path d="M355.336 144.301H352.23V147.406H355.336V144.301Z" stroke="white" stroke-width="0.77634" stroke-linecap="round" stroke-linejoin="round"/>
<path d="M349.125 144.301H346.02V147.406H349.125V144.301Z" stroke="white" stroke-width="0.77634" stroke-linecap="round" stroke-linejoin="round"/>
<path d="M342.914 144.301H339.809V147.406H342.914V144.301Z" stroke="white" stroke-width="0.77634" stroke-linecap="round" stroke-linejoin="round"/>
<path d="M361.547 144.301H358.441V147.406H361.547V144.301Z" stroke="white" stroke-width="0.77634" stroke-linecap="round" stroke-linejoin="round"/>
<path d="M355.336 150.516H352.23V153.621H355.336V150.516Z" stroke="white" stroke-width="0.77634" stroke-linecap="round" stroke-linejoin="round"/>
<path d="M349.125 150.516H346.02V153.621H349.125V150.516Z" stroke="white" stroke-width="0.77634" stroke-linecap="round" stroke-linejoin="round"/>
<path d="M342.914 150.516H339.809V153.621H342.914V150.516Z" stroke="white" stroke-width="0.77634" stroke-linecap="round" stroke-linejoin="round"/>
<path d="M361.547 150.516H358.441V153.621H361.547V150.516Z" stroke="white" stroke-width="0.77634" stroke-linecap="round" stroke-linejoin="round"/>
<path d="M355.336 156.727H352.23V159.832H355.336V156.727Z" stroke="white" stroke-width="0.77634" stroke-linecap="round" stroke-linejoin="round"/>
<path d="M349.125 156.727H346.02V159.832H349.125V156.727Z" stroke="white" stroke-width="0.77634" stroke-linecap="round" stroke-linejoin="round"/>
<path d="M342.914 156.727H339.809V159.832H342.914V156.727Z" stroke="white" stroke-width="0.77634" stroke-linecap="round" stroke-linejoin="round"/>
<path d="M361.547 156.727H358.441V159.832H361.547V156.727Z" stroke="white" stroke-width="0.77634" stroke-linecap="round" stroke-linejoin="round"/>
<path d="M355.336 162.934H352.23V166.039H355.336V162.934Z" stroke="white" stroke-width="0.77634" stroke-linecap="round" stroke-linejoin="round"/>
<path d="M349.125 162.934H346.02V166.039H349.125V162.934Z" stroke="white" stroke-width="0.77634" stroke-linecap="round" stroke-linejoin="round"/>
<path d="M342.914 162.934H339.809V166.039H342.914V162.934Z" stroke="white" stroke-width="0.77634" stroke-linecap="round" stroke-linejoin="round"/>
<path d="M361.547 162.934H358.441V166.039H361.547V162.934Z" stroke="white" stroke-width="0.77634" stroke-linecap="round" stroke-linejoin="round"/>
<path d="M355.336 169.148H352.23V172.254H355.336V169.148Z" stroke="white" stroke-width="0.77634" stroke-linecap="round" stroke-linejoin="round"/>
<path d="M349.125 169.148H346.02V172.254H349.125V169.148Z" stroke="white" stroke-width="0.77634" stroke-linecap="round" stroke-linejoin="round"/>
<path d="M342.914 169.148H339.809V172.254H342.914V169.148Z" stroke="white" stroke-width="0.77634" stroke-linecap="round" stroke-linejoin="round"/>
<path d="M361.547 169.148H358.441V172.254H361.547V169.148Z" stroke="white" stroke-width="0.77634" stroke-linecap="round" stroke-linejoin="round"/>
<path d="M355.336 175.359H352.23V178.465H355.336V175.359Z" stroke="white" stroke-width="0.77634" stroke-linecap="round" stroke-linejoin="round"/>
<path d="M349.125 175.359H346.02V178.465H349.125V175.359Z" stroke="white" stroke-width="0.77634" stroke-linecap="round" stroke-linejoin="round"/>
<path d="M342.914 175.359H339.809V178.465H342.914V175.359Z" stroke="white" stroke-width="0.77634" stroke-linecap="round" stroke-linejoin="round"/>
<path d="M361.547 175.359H358.441V178.465H361.547V175.359Z" stroke="white" stroke-width="0.77634" stroke-linecap="round" stroke-linejoin="round"/>
<path d="M355.336 181.566H352.23V184.672H355.336V181.566Z" stroke="white" stroke-width="0.77634" stroke-linecap="round" stroke-linejoin="round"/>
<path d="M349.125 181.566H346.02V184.672H349.125V181.566Z" stroke="white" stroke-width="0.77634" stroke-linecap="round" stroke-linejoin="round"/>
<path d="M342.914 181.566H339.809V184.672H342.914V181.566Z" stroke="white" stroke-width="0.77634" stroke-linecap="round" stroke-linejoin="round"/>
<path d="M361.547 181.566H358.441V184.672H361.547V181.566Z" stroke="white" stroke-width="0.77634" stroke-linecap="round" stroke-linejoin="round"/>
<path d="M355.336 187.777H352.23V190.883H355.336V187.777Z" stroke="white" stroke-width="0.77634" stroke-linecap="round" stroke-linejoin="round"/>
<path d="M349.125 187.777H346.02V190.883H349.125V187.777Z" stroke="white" stroke-width="0.77634" stroke-linecap="round" stroke-linejoin="round"/>
<path d="M342.914 187.777H339.809V190.883H342.914V187.777Z" stroke="white" stroke-width="0.77634" stroke-linecap="round" stroke-linejoin="round"/>
<path d="M361.547 187.777H358.441V190.883H361.547V187.777Z" stroke="white" stroke-width="0.77634" stroke-linecap="round" stroke-linejoin="round"/>
<path d="M88.2812 184.682H106.913V175.366H119.335V187.787H131.756V138.102H150.388V178.471H193.864" stroke="white" stroke-width="0.77634" stroke-linecap="round" stroke-linejoin="round"/>
<path d="M-11.0898 166.046H19.9638V153.625H35.4906V175.363H41.7013" stroke="white" stroke-width="0.77634" stroke-linecap="round" stroke-linejoin="round"/>
<path d="M231.129 184.676H246.656" stroke="white" stroke-width="0.77634" stroke-linecap="round" stroke-linejoin="round"/>
<path d="M314.973 181.574H336.71" stroke="white" stroke-width="0.77634" stroke-linecap="round" stroke-linejoin="round"/>
<path d="M364.66 162.941H383.292V175.363H392.608" stroke="white" stroke-width="0.77634" stroke-linecap="round" stroke-linejoin="round"/>
<path d="M305.659 172.258H277.711V197.101H305.659V172.258Z" fill="#08BDBA" stroke="white" stroke-width="0.77634" stroke-linecap="round" stroke-linejoin="round"/>
<path d="M314.973 156.73C316.688 156.73 318.078 155.34 318.078 153.625C318.078 151.91 316.688 150.52 314.973 150.52C313.258 150.52 311.867 151.91 311.867 153.625C311.867 155.34 313.258 156.73 314.973 156.73Z" fill="#00539A" stroke="white" stroke-width="0.77634" stroke-linecap="round" stroke-linejoin="round"/>
<path d="M19.9647 169.152C21.6798 169.152 23.0701 167.762 23.0701 166.047C23.0701 164.332 21.6798 162.941 19.9647 162.941C18.2497 162.941 16.8594 164.332 16.8594 166.047C16.8594 167.762 18.2497 169.152 19.9647 169.152Z" fill="#00539A" stroke="white" stroke-width="0.77634" stroke-linecap="round" stroke-linejoin="round"/>
<path d="M153.492 175.359H147.281V181.57H153.492V175.359Z" fill="#00539A" stroke="white" stroke-width="0.77634" stroke-linecap="round" stroke-linejoin="round"/>
<path d="M308.762 169.152H302.551V175.363H308.762V169.152Z" fill="#00539A" stroke="white" stroke-width="0.77634" stroke-linecap="round" stroke-linejoin="round"/>
<path d="M41.4286 24.75H24.582L36.8327 30.9607H73.2857C74.295 30.9607 74.6909 29.6332 73.8525 29.0625L68.4996 25.4487C67.8281 24.9945 67.044 24.7539 66.2366 24.7539L49.0794 24.7461" stroke="white" stroke-width="0.77634" stroke-linecap="round" stroke-linejoin="round"/>
<path d="M30.7075 24.7498H24.5822L21.5195 18.5391H24.5822L30.7075 24.7498Z" stroke="white" stroke-width="0.77634" stroke-linecap="round" stroke-linejoin="round"/>
<path d="M39.8947 15.4336H36.832L42.9574 27.855H52.1453L39.8947 15.4336Z" stroke="white" stroke-width="0.77634" stroke-linecap="round" stroke-linejoin="round"/>
<path d="M66.4381 24.7578C66.4381 24.7578 66.4148 27.8476 66.4226 27.8554H30.707" stroke="white" stroke-width="0.77634" stroke-linecap="round" stroke-linejoin="round"/>
<path d="M72.0737 27.8633H66.4258" stroke="white" stroke-width="0.77634" stroke-linecap="round" stroke-linejoin="round"/>
</g>
</g>
<defs>
<clipPath id="clip0_764_9367">
<rect width="367" height="197" fill="white"/>
</clipPath>
<clipPath id="clip1_764_9367">
<rect width="420" height="213.494" fill="white" transform="translate(-27 -16)"/>
</clipPath>
</defs>
</svg>
