<svg width="20" height="20" viewBox="0 0 20 20" fill="none" xmlns="http://www.w3.org/2000/svg">
<g opacity="0.5">
<path fill-rule="evenodd" clip-rule="evenodd" d="M18.0711 10.0009C18.0711 10.5532 17.6234 11.0009 17.0711 11.0009H2.92893C2.37665 11.0009 1.92893 10.5532 1.92893 10.0009C1.92893 9.44862 2.37665 9.00091 2.92893 9.00091H17.0711C17.6234 9.00091 18.0711 9.44862 18.0711 10.0009Z" fill="black"/>
<path fill-rule="evenodd" clip-rule="evenodd" d="M10 1.92984C10.5523 1.92984 11 2.37755 11 2.92984L11 17.072C11 17.6243 10.5523 18.072 10 18.072C9.44772 18.072 9 17.6243 9 17.072L9 2.92984C9 2.37755 9.44772 1.92984 10 1.92984Z" fill="black"/>
</g>
</svg>
